<svg xmlns="http://www.w3.org/2000/svg" width="820" height="550"
     viewBox="0 0 820 550"
     font-family="ui-monospace,SFMono-Regular,Menlo,Monaco,Consolas,monospace">

  <!-- background -->
  <rect width="820" height="550" fill="#fafafa" rx="4"/>

  <!-- title -->
  <text x="410" y="26" text-anchor="middle" font-size="13" font-weight="700" fill="#0f172a">
    NxGraph Benchmark Results — .NET 8 · ShortRun · log₂ scale
  </text>

  <!--
    Chart area: x=260..790 (530px), log₂ scale from 4 (16 ns) to 13 (8192 ns)
    scale = 530 / 9 = 58.889 px per log₂ unit
    Tick x positions:
      16 ns=260  32=319  64=378  128=437  256=496  512=554  1024=613  2048=672  4096=731  8192=790
    Bar widths  (w = (log2(ns) - 4) * 58.889):
      Sync  56 ns    w=106   Async 246 ns    w=232
      Sync  62 ns    w=115   Async 301 ns    w=249
      Sync  69 ns    w=124   Async 382 ns    w=270
      Sync  385 ns   w=270   Async 1107 ns   w=360
      Sync  467 ns   w=287   Async 1225 ns   w=369
      Sync  1480 ns  w=385   Async 4851 ns   w=485  x_end=745
  -->

  <!-- grid lines (dashed, one per power-of-2) -->
  <line x1="260" y1="46" x2="260" y2="448" stroke="#cbd5e1" stroke-width="1" stroke-dasharray="3,3"/>
  <line x1="319" y1="46" x2="319" y2="448" stroke="#e2e8f0" stroke-width="1" stroke-dasharray="3,3"/>
  <line x1="378" y1="46" x2="378" y2="448" stroke="#e2e8f0" stroke-width="1" stroke-dasharray="3,3"/>
  <line x1="437" y1="46" x2="437" y2="448" stroke="#e2e8f0" stroke-width="1" stroke-dasharray="3,3"/>
  <line x1="496" y1="46" x2="496" y2="448" stroke="#e2e8f0" stroke-width="1" stroke-dasharray="3,3"/>
  <line x1="554" y1="46" x2="554" y2="448" stroke="#e2e8f0" stroke-width="1" stroke-dasharray="3,3"/>
  <line x1="613" y1="46" x2="613" y2="448" stroke="#e2e8f0" stroke-width="1" stroke-dasharray="3,3"/>
  <line x1="672" y1="46" x2="672" y2="448" stroke="#e2e8f0" stroke-width="1" stroke-dasharray="3,3"/>
  <line x1="731" y1="46" x2="731" y2="448" stroke="#e2e8f0" stroke-width="1" stroke-dasharray="3,3"/>
  <line x1="790" y1="46" x2="790" y2="448" stroke="#e2e8f0" stroke-width="1" stroke-dasharray="3,3"/>

  <!-- ═══ Group 1: Single Node ═══ -->
  <text x="258" y="46" text-anchor="end" font-size="9" fill="#94a3b8" font-style="italic">single node</text>
  <rect x="260" y="50" width="106" height="22" fill="#34d399" rx="2"/>
  <text x="258" y="65" text-anchor="end" font-size="10" fill="#374151">Sync</text>
  <text x="370" y="65" font-size="10" fill="#15803d" font-weight="600">56 ns</text>
  <rect x="260" y="76" width="232" height="22" fill="#60a5fa" rx="2"/>
  <text x="258" y="91" text-anchor="end" font-size="10" fill="#374151">Async</text>
  <text x="496" y="91" font-size="10" fill="#1d4ed8" font-weight="600">246 ns</text>

  <!-- ═══ Group 2: Single + Observer ═══ -->
  <text x="258" y="116" text-anchor="end" font-size="9" fill="#94a3b8" font-style="italic">single + observer</text>
  <rect x="260" y="120" width="115" height="22" fill="#34d399" rx="2"/>
  <text x="258" y="135" text-anchor="end" font-size="10" fill="#374151">Sync</text>
  <text x="379" y="135" font-size="10" fill="#15803d" font-weight="600">62 ns</text>
  <rect x="260" y="146" width="249" height="22" fill="#60a5fa" rx="2"/>
  <text x="258" y="161" text-anchor="end" font-size="10" fill="#374151">Async</text>
  <text x="513" y="161" font-size="10" fill="#1d4ed8" font-weight="600">301 ns</text>

  <!-- ═══ Group 3: Timeout Wrapper (immediate success) ═══ -->
  <text x="258" y="186" text-anchor="end" font-size="9" fill="#94a3b8" font-style="italic">timeout wrapper</text>
  <rect x="260" y="190" width="124" height="22" fill="#34d399" rx="2"/>
  <text x="258" y="205" text-anchor="end" font-size="10" fill="#374151">Sync</text>
  <text x="388" y="205" font-size="10" fill="#15803d" font-weight="600">69 ns</text>
  <rect x="260" y="216" width="270" height="22" fill="#60a5fa" rx="2"/>
  <text x="258" y="231" text-anchor="end" font-size="10" fill="#374151">Async</text>
  <text x="534" y="231" font-size="10" fill="#1d4ed8" font-weight="600">382 ns</text>

  <!-- ═══ Group 4: Chain × 10 ═══ -->
  <text x="258" y="256" text-anchor="end" font-size="9" fill="#94a3b8" font-style="italic">chain × 10</text>
  <rect x="260" y="260" width="270" height="22" fill="#34d399" rx="2"/>
  <text x="258" y="275" text-anchor="end" font-size="10" fill="#374151">Sync</text>
  <text x="534" y="275" font-size="10" fill="#15803d" font-weight="600">385 ns</text>
  <rect x="260" y="286" width="360" height="22" fill="#60a5fa" rx="2"/>
  <text x="258" y="301" text-anchor="end" font-size="10" fill="#374151">Async</text>
  <text x="624" y="301" font-size="10" fill="#1d4ed8" font-weight="600">1,107 ns</text>

  <!-- ═══ Group 5: Director × 10 ═══ -->
  <text x="258" y="326" text-anchor="end" font-size="9" fill="#94a3b8" font-style="italic">director × 10</text>
  <rect x="260" y="330" width="287" height="22" fill="#34d399" rx="2"/>
  <text x="258" y="345" text-anchor="end" font-size="10" fill="#374151">Sync</text>
  <text x="551" y="345" font-size="10" fill="#15803d" font-weight="600">467 ns</text>
  <rect x="260" y="356" width="369" height="22" fill="#60a5fa" rx="2"/>
  <text x="258" y="371" text-anchor="end" font-size="10" fill="#374151">Async</text>
  <text x="633" y="371" font-size="10" fill="#1d4ed8" font-weight="600">1,225 ns</text>

  <!-- ═══ Group 6: Chain × 50 ═══ -->
  <text x="258" y="396" text-anchor="end" font-size="9" fill="#94a3b8" font-style="italic">chain × 50</text>
  <rect x="260" y="400" width="385" height="22" fill="#34d399" rx="2"/>
  <text x="258" y="415" text-anchor="end" font-size="10" fill="#374151">Sync</text>
  <text x="649" y="415" font-size="10" fill="#15803d" font-weight="600">1,480 ns</text>
  <!-- label inside bar: widest bar, keep the value clear of the axis edge -->
  <rect x="260" y="426" width="485" height="22" fill="#60a5fa" rx="2"/>
  <text x="258" y="441" text-anchor="end" font-size="10" fill="#374151">Async</text>
  <text x="741" y="441" text-anchor="end" font-size="10" fill="#ffffff" font-weight="600">4,851 ns</text>

  <!-- axis line -->
  <line x1="260" y1="452" x2="790" y2="452" stroke="#64748b" stroke-width="1.5"/>

  <!-- axis ticks + labels -->
  <line x1="260" y1="452" x2="260" y2="458" stroke="#64748b" stroke-width="1.5"/>
  <text x="260" y="470" text-anchor="middle" font-size="10" fill="#64748b">16 ns</text>
  <line x1="319" y1="452" x2="319" y2="458" stroke="#94a3b8" stroke-width="1"/>
  <text x="319" y="470" text-anchor="middle" font-size="10" fill="#94a3b8">32</text>
  <line x1="378" y1="452" x2="378" y2="458" stroke="#94a3b8" stroke-width="1"/>
  <text x="378" y="470" text-anchor="middle" font-size="10" fill="#94a3b8">64</text>
  <line x1="437" y1="452" x2="437" y2="458" stroke="#94a3b8" stroke-width="1"/>
  <text x="437" y="470" text-anchor="middle" font-size="10" fill="#94a3b8">128</text>
  <line x1="496" y1="452" x2="496" y2="458" stroke="#94a3b8" stroke-width="1"/>
  <text x="496" y="470" text-anchor="middle" font-size="10" fill="#94a3b8">256</text>
  <line x1="554" y1="452" x2="554" y2="458" stroke="#94a3b8" stroke-width="1"/>
  <text x="554" y="470" text-anchor="middle" font-size="10" fill="#94a3b8">512</text>
  <line x1="613" y1="452" x2="613" y2="458" stroke="#94a3b8" stroke-width="1"/>
  <text x="613" y="470" text-anchor="middle" font-size="10" fill="#64748b">1 µs</text>
  <line x1="672" y1="452" x2="672" y2="458" stroke="#94a3b8" stroke-width="1"/>
  <text x="672" y="470" text-anchor="middle" font-size="10" fill="#94a3b8">2 µs</text>
  <line x1="731" y1="452" x2="731" y2="458" stroke="#94a3b8" stroke-width="1"/>
  <text x="731" y="470" text-anchor="middle" font-size="10" fill="#94a3b8">4 µs</text>
  <line x1="790" y1="452" x2="790" y2="458" stroke="#94a3b8" stroke-width="1"/>
  <text x="790" y="470" text-anchor="middle" font-size="10" fill="#94a3b8">8 µs</text>

  <!-- legend -->
  <rect x="250" y="488" width="13" height="12" fill="#34d399" rx="2"/>
  <text x="267" y="499" font-size="11" fill="#374151">Sync StateMachine (0 B)</text>
  <rect x="470" y="488" width="13" height="12" fill="#60a5fa" rx="2"/>
  <text x="487" y="499" font-size="11" fill="#374151">Async StateMachine (0 B)</text>

  <!-- footer -->
  <text x="410" y="530" text-anchor="middle" font-size="10" fill="#94a3b8">
    Runtime: .NET 8.0.27 · RyuJIT AVX-512 · 2026-07-19
  </text>
</svg>
